<?xml version="1.0" encoding="UTF-8"?>
<svg id="Layer_2" data-name="Layer 2" xmlns="http://www.w3.org/2000/svg" viewBox="0 0 136.83 39.19">
  <g id="cursive">
    <g>
      <path d="M102.58,13.22c8.5-4.15,18.02-6.17,27.47-5.82"
        style="fill: none; stroke: #2670a6; stroke-linecap: round; stroke-linejoin: round; stroke-width: 4px;" />
      <path d="M67.16,9.05c-.23-.5-.78-.83-1.33-.79"
        style="fill: none; stroke: #2670a6; stroke-linecap: round; stroke-linejoin: round; stroke-width: 4px;" />
      <path
        d="M3.82,17.7c-.91,2.39-1.84,4.85-1.82,7.41s1.17,5.28,3.46,6.41c3.31,1.63,7.21-.58,9.92-3.08,5.19-4.78,9.09-10.96,11.16-17.71.8-2.61.93-6.19-1.57-7.3-2.27-1-4.71.99-6.21,2.97-5.02,6.66-7.41,15.26-6.54,23.56.2,1.91.61,3.9,1.81,5.4s3.41,2.35,5.12,1.47c2.22-1.13,2.4-4.12,3.1-6.51,1.37-4.73,6.07-8.28,11-8.31-.64-1.1-2.32-1.13-3.37-.4s-1.6,1.95-2.11,3.11c-1.52,3.47-2.67,8.33.51,10.39,2.01,1.31,4.86.53,6.54-1.18s2.45-4.11,2.99-6.45c.48-2.09.81-4.39-.16-6.31s-3.76-2.99-5.35-1.55c-1.57,1.43-.79,4.27.99,5.42s4.09,1.04,6.18.7c2.62-.43,5.2-1.16,7.66-2.17,1.85-.76,3.73-1.78,4.7-3.52s.57-4.37-1.27-5.16c-2.16-.93-4.61,1.44-4.57,3.79s1.73,4.34,3.55,5.83,3.9,2.73,5.28,4.63,1.82,4.78.21,6.49c-1.95,2.05-5.82.9-7-1.67s-.13-5.72,1.79-7.8,4.56-3.32,7.12-4.51c2.86-1.33,6.86-2.39,8.67.19,2.37,3.37-2.42,7.74-1.7,11.8,4.89-.99,9.51-3.26,13.27-6.53,1.14-.99,2.26-2.17,2.55-3.66s-.63-3.28-2.14-3.41c-1.94-.16-2.99,2.18-3.44,4.08-.44,1.84-.85,3.74-.47,5.59s1.78,3.63,3.65,3.83c2.29.25,4.18-1.85,5.08-3.97s1.26-4.52,2.66-6.36,4.46-2.72,5.95-.96c2.31,2.74-2.06,6.92-.81,10.28.84-4.91,4.38-9.27,9.01-11.09,1.42,1.71.45,4.24-.29,6.33s-.77,5.1,1.34,5.8c1.85.62,3.57-1.18,4.64-2.82,5.64-8.65,9.37-18.54,10.84-28.76-3.76,8.15-5.84,17.08-6.06,26.06-.06,2.59,1.06,6.12,3.61,5.72,2.17-.34,2.64-3.16,3.3-5.25,1.16-3.63,4.57-6.44,8.35-6.88-2.33.39-4.21,2.63-4.19,4.99s1.92,4.57,4.25,4.94c3.03.47,5.99-2.16,6.41-5.2s-1.35-6.1-3.9-7.8c-1.74-1.16-4.69-1.42-5.42.55-.6,1.62,1.08,3.34,2.8,3.5s3.35-.69,4.92-1.43,3.34-1.4,4.98-.86"
        style="fill: none; stroke: #2670a6; stroke-linecap: round; stroke-linejoin: round; stroke-width: 4px;" />
    </g>
  </g>
</svg>
